<?xml version="1.0" encoding="UTF-8"?>
<svg width="141px" height="19px" viewBox="0 0 141 19" version="1.1" xmlns="http://www.w3.org/2000/svg" xmlns:xlink="http://www.w3.org/1999/xlink">
    <!-- Generator: Sketch 51.3 (57544) - http://www.bohemiancoding.com/sketch -->
    <title>Artboard</title>
    <desc>Created with Sketch.</desc>
    <defs>
        <linearGradient x1="89.4327879%" y1="33.1102453%" x2="11.6570017%" y2="71.7736741%" id="linearGradient-1">
            <stop stop-color="#F00707" offset="0%"></stop>
            <stop stop-color="#B911EF" offset="100%"></stop>
        </linearGradient>
    </defs>
    <g id="Artboard" stroke="none" stroke-width="1" fill="none" fill-rule="evenodd">
        <path d="M0.20696062,11.054211 L4.09464203,10.6863504 C3.93356849,11.3484995 3.94330048,11.6795741 4.08443145,12.0474347 C4.32291835,12.5992256 4.97030823,12.9119071 5.89047421,12.9119071 C7.27974443,12.9119071 8.33231096,12.286544 8.69896749,11.2565344 C8.90193808,10.6863504 8.78945088,10.1897386 8.39783434,9.96902227 C8.08342524,9.78509197 7.67698624,9.65634076 5.95198784,9.21490803 C4.41702205,8.84704743 3.91553231,8.62633107 3.41377084,8.14811229 C2.55657839,7.33881897 2.37175951,6.10648596 2.89304335,4.61665053 C3.8841262,1.78412391 6.7672794,0 10.3560153,0 C12.6695658,0 14.1803374,0.71732817 14.6696933,2.09680542 C14.9069159,2.70377541 14.9272708,3.25556631 14.7874961,4.30396902 L10.7873182,4.72700871 C10.9946611,3.53146176 10.5169408,3.03484995 9.13557035,3.03484995 C8.0268388,3.03484995 6.99484953,3.64181994 6.69644536,4.48789932 C6.51480804,5.00290416 6.6507418,5.38915779 7.1338726,5.66505324 C7.43814708,5.83059051 7.43814708,5.83059051 9.42165639,6.27202323 C10.694872,6.56631171 11.4534408,6.87899322 11.9843935,7.32042594 C12.992288,8.14811229 13.2019258,9.3804453 12.5947143,11.0726041 C12.0997049,12.4520813 11.2445102,13.6292352 10.1187797,14.4569216 C8.70570159,15.4869313 6.93117913,16.0203291 4.82512415,16.0203291 C3.2950842,16.0203291 1.89960133,15.6892546 1.12765472,15.1190707 C0.407608909,14.6040658 0.0178174489,13.8131655 0.00598233771,12.7647628 C-0.0200793514,12.3233301 0.0375902283,11.9002904 0.20696062,11.054211 Z M14.4387316,19 L10.7568887,19 C11.1311476,18.2090997 11.5158626,17.2894482 11.8665129,16.3146176 L15.0951429,7.33881897 C15.5251859,6.14327202 15.7601555,5.38915779 15.9886077,4.45111326 L19.5654954,4.45111326 L19.3389529,5.07647628 C19.2989748,5.18683446 19.2275258,5.3339787 19.194212,5.42594385 C20.6167131,4.50629235 21.8829427,4.12003872 23.3903276,4.12003872 C24.9885189,4.12003872 26.1205395,4.5982575 26.7195027,5.53630203 C27.3217181,6.51113262 27.2750836,7.96418199 26.589669,9.82187803 C25.8974681,11.6979671 24.7930592,13.2245886 23.3792935,14.2729913 C22.1157141,15.2110358 20.6123339,15.7260407 19.1359693,15.7260407 C18.2897604,15.7260407 17.4384247,15.5421104 16.8790469,15.2478219 C16.4841713,15.0454985 16.2873336,14.8431752 15.9427815,14.4017425 C15.8828166,14.5672798 15.7962007,14.8063892 15.7209353,15.0638916 L15.2611872,16.3330106 C14.8880583,17.3630203 14.6175014,18.2090997 14.4387316,19 Z M19.3558559,12.9486931 C20.0414509,12.9486931 20.7422435,12.7095837 21.3795909,12.249758 C22.0668444,11.7531462 22.6657142,10.9070668 23.04977,9.85866409 C23.7370278,7.98257502 23.1558774,6.89738625 21.4522461,6.89738625 C19.9479759,6.89738625 18.2291254,8.24007744 17.6227457,9.91384318 C16.9963755,11.642788 17.7320783,12.9486931 19.3558559,12.9486931 Z M37.8660764,11.0909971 L29.7358931,11.0909971 C29.3626464,12.5808325 29.9162955,13.3717328 31.3411598,13.3717328 C32.0626101,13.3717328 32.7834288,13.1326234 33.4179332,12.6911907 C33.7851958,12.4336883 33.9874424,12.231365 34.311317,11.7531462 L37.1130967,12.6544046 C36.3371659,13.6108422 35.9071388,14.0338819 35.2083566,14.5488867 C33.7939547,15.5788964 32.1534806,16.1122943 30.3715571,16.1122943 C28.6076328,16.1122943 27.4128499,15.5972894 26.774832,14.5488867 C26.1195248,13.4453049 26.1195697,11.8818974 26.7918069,10.0609874 C28.1362811,6.41916747 31.332477,4.00968054 34.8015632,4.00968054 C37.634953,4.00968054 39.0252045,5.57308809 38.6255263,8.31364956 C38.5480959,8.90222652 38.3287151,9.67473379 37.9869611,10.7231365 C37.9591708,10.7967086 37.9174853,10.9070668 37.8660764,11.0909971 Z M30.7335656,8.55275895 L35.3856177,8.55275895 C35.5736154,7.37560503 35.0287119,6.75024201 33.7780369,6.75024201 C32.4911104,6.75024201 31.492793,7.33881897 30.7335656,8.55275895 Z M49.6107374,11.0909971 L41.4805541,11.0909971 C41.0942215,12.5808325 41.6409237,13.3717328 43.0657881,13.3717328 C43.7872384,13.3717328 44.5101573,13.1326234 45.1485389,12.6911907 C45.5180633,12.4336883 45.722087,12.231365 46.050162,11.7531462 L48.8440256,12.6544046 C48.0596939,13.6108422 47.6259511,14.0338819 46.9226454,14.5488867 C45.4991964,15.5788964 43.8540372,16.1122943 42.0721137,16.1122943 C40.3081895,16.1122943 39.11793,15.5972894 38.4891207,14.5488867 C37.8435069,13.4453049 37.8572839,11.8818974 38.5455149,10.0609874 C39.9219769,6.41916747 43.1393364,4.00968054 46.6084226,4.00968054 C49.4418125,4.00968054 50.8183318,5.57308809 50.394582,8.31364956 C50.3119819,8.90222652 50.0858158,9.67473379 49.7348532,10.7231365 C49.7064166,10.7967086 49.6637618,10.9070668 49.6107374,11.0909971 Z M42.500521,8.55275895 L47.1525732,8.55275895 C47.3509104,7.37560503 46.8114997,6.75024201 45.5608247,6.75024201 C44.2738982,6.75024201 43.2704111,7.33881897 42.500521,8.55275895 Z M57.0062007,15.6708616 L57.2377497,15.0822846 C57.2811651,14.9719264 57.3318164,14.8431752 57.4149582,14.6776379 C55.8178581,15.6708616 54.7698704,16.0019361 53.25781,16.0019361 C49.9816793,16.0019361 48.869433,13.7579864 50.3063363,10.0425944 C51.0461281,8.12971926 52.1803703,6.60309777 53.6022034,5.55469506 C54.8919582,4.61665053 56.3562273,4.12003872 57.8454509,4.12003872 C59.3165133,4.12003872 60.2182519,4.50629235 61.0330348,5.48112294 C61.1234305,5.20522749 61.1885536,5.03969022 61.2898563,4.7821878 L61.8904363,3.25556631 C62.3969497,1.96805421 62.6716915,1.17715392 62.8807777,0.3678606 L66.61423,0.3678606 C66.1990566,1.14036786 65.8130756,2.0232333 65.3251229,3.25556631 L61.5525934,12.7831559 C61.0646408,14.0154889 60.8020776,14.7696031 60.5532235,15.6708616 L57.0062007,15.6708616 Z M57.5979067,6.93417231 C56.0211848,6.93417231 54.5589028,8.12971926 53.8069352,10.0609874 C53.3987242,11.1093901 53.3581771,11.9554695 53.6918211,12.4888674 C53.9526817,12.9303001 54.5015706,13.1878025 55.169004,13.1878025 C56.7744521,13.1878025 58.4823905,11.8267183 59.1986959,10.0058083 C59.9005304,8.22168441 59.2471216,6.93417231 57.5979067,6.93417231 Z M65.4697001,15.6708616 L61.7606306,15.6708616 C62.2046007,14.8247822 62.5473817,14.0522749 63.0075033,12.893514 L65.2569866,7.22846079 C65.812054,5.83059051 66.0386864,5.16844143 66.2145634,4.45111326 L69.809608,4.45111326 L69.5008771,5.22362052 C69.4714741,5.29719264 69.4714741,5.29719264 69.3798239,5.48112294 L69.306319,5.66505324 C70.6438159,4.63504356 71.943065,4.15682478 73.3777656,4.15682478 C74.3221254,4.15682478 75.0139796,4.37754114 75.4348721,4.81897386 C75.6649598,5.05808325 75.757205,5.27879961 75.8070989,5.73862536 C77.3865186,4.61665053 78.6881801,4.13843175 80.2681884,4.13843175 C82.8652137,4.13843175 83.6023933,5.57308809 82.4629734,8.35043562 L80.5916083,12.9119071 C80.123767,14.0522749 79.8504218,14.8063892 79.6037758,15.6708616 L75.8586958,15.6708616 C76.3191148,14.8063892 76.6250806,14.1442401 77.1349521,12.893514 L78.6795629,9.10454985 C79.2419212,7.7250726 79.0607317,7.19167473 78.0279053,7.19167473 C77.1037975,7.19167473 75.9721137,7.92739593 75.0203416,9.15972894 L73.5009175,12.9119071 C73.054028,14.0154889 72.7772396,14.7879961 72.5277353,15.6708616 L68.7826554,15.6708616 C69.2236841,14.8431752 69.5705354,14.070668 70.0441636,12.893514 L71.5686545,9.10454985 C71.879473,8.33204259 71.9476451,7.98257502 71.8379628,7.66989351 C71.7570123,7.37560503 71.4611634,7.21006776 71.0262951,7.21006776 C70.0478414,7.21006776 68.9273937,7.92739593 67.9204687,9.17812197 L66.4356198,12.893514 C65.9725234,14.0522749 65.7218794,14.7696031 65.4697001,15.6708616 Z M93.6614525,11.0909971 L85.5312692,11.0909971 C85.0958552,12.5808325 85.616502,13.3717328 87.0413663,13.3717328 C87.7628166,13.3717328 88.4936128,13.1326234 89.1465371,12.6911907 C89.5245446,12.4336883 89.7352337,12.231365 90.0790632,11.7531462 L92.8432356,12.6544046 C92.0273949,13.6108422 91.5797155,14.0338819 90.8594433,14.5488867 C89.4020616,15.5788964 87.7393301,16.1122943 85.9574066,16.1122943 C84.1934823,16.1122943 83.0201893,15.5972894 82.4259187,14.5488867 C81.8166613,13.4453049 81.8819434,11.8818974 82.6301628,10.0609874 C84.1266014,6.41916747 87.4233393,4.00968054 90.8924255,4.00968054 C93.7258154,4.00968054 95.0508296,5.57308809 94.5367944,8.31364956 C94.4348041,8.90222652 94.1831884,9.67473379 93.7976872,10.7231365 C93.7668268,10.7967086 93.7205363,10.9070668 93.6614525,11.0909971 Z M86.6348562,8.55275895 L91.2869083,8.55275895 C91.5240258,7.37560503 91.0052172,6.75024201 89.7545422,6.75024201 C88.4676157,6.75024201 87.4447385,7.33881897 86.6348562,8.55275895 Z M98.644728,4.45111326 L98.8073818,4.06485963 C99.1946528,3.14520813 99.4681009,2.40948693 99.7229359,1.54501452 L103.434932,1.54501452 C103.024443,2.29912875 102.595862,3.18199419 102.22184,4.06485963 L102.058205,4.45111326 L102.711849,4.45111326 C103.510748,4.45111326 103.936172,4.43272023 104.530342,4.35914811 L103.231318,7.41239109 C102.719087,7.33881897 102.263648,7.30203291 101.61139,7.30203291 L100.850423,7.30203291 L98.8556341,12.0106486 C98.6374542,12.5256534 98.6185852,12.7831559 98.7829904,12.9486931 C98.9268567,13.0774443 99.1842871,13.1510165 99.5270326,13.1510165 C99.9960529,13.1510165 100.377895,13.0590513 100.930637,12.8199419 L100.011259,15.6156825 C99.0915399,15.8731849 98.3425942,15.9835431 97.370542,15.9835431 C96.1464763,15.9835431 95.3858601,15.7812197 94.9959419,15.339787 C94.5362927,14.8063892 94.5474008,14.1810261 95.0740893,12.9303001 L97.4441879,7.30203291 L96.7556936,7.30203291 C96.175909,7.30203291 95.6893909,7.33881897 95.133118,7.41239109 L96.4214153,4.34075508 C96.9171192,4.4143272 97.3555959,4.45111326 97.9910835,4.45111326 L98.644728,4.45111326 Z M114.260636,4.45111326 L111.958608,7.76185866 C111.236555,7.50435624 110.823314,7.41239109 110.261694,7.41239109 C109.337738,7.41239109 108.488993,7.74346563 107.679612,8.40561471 C107.146347,8.84704743 106.854062,9.23330106 106.43476,10.0425944 L105.204722,12.9119071 C104.700091,14.089061 104.436501,14.7879961 104.166035,15.6708616 L100.43896,15.6708616 C100.938836,14.7512101 101.257017,14.089061 101.766448,12.893514 L104.180363,7.22846079 C104.752492,5.8857696 104.990509,5.24201355 105.218554,4.45111326 L108.831756,4.45111326 L108.208852,5.90416263 C109.602983,4.72700871 110.905789,4.2303969 112.558329,4.2303969 C113.139441,4.2303969 113.486742,4.26718296 114.260636,4.45111326 Z M116.483941,0.3678606 L120.18097,0.3678606 L118.978593,3.1268151 L115.289132,3.1268151 L116.483941,0.3678606 Z M114.661154,4.45111326 L118.455923,4.45111326 C118.018363,5.20522749 117.661486,5.94094869 117.100464,7.22846079 L114.631968,12.893514 C114.199179,13.8867377 113.820438,14.8799613 113.565805,15.6708616 L109.802719,15.6708616 C110.301091,14.7696031 110.639858,14.070668 111.149723,12.893514 L113.603446,7.22846079 C114.121277,6.03291384 114.411618,5.27879961 114.661154,4.45111326 Z M128.872725,7.85382381 L125.311778,8.53436592 C125.39285,7.98257502 125.398036,7.7250726 125.284495,7.44917715 C125.109004,7.02613746 124.698983,6.8054211 124.046484,6.8054211 C122.57836,6.8054211 121.191545,7.98257502 120.303267,10.0058083 C119.43114,11.9922556 119.785784,13.2797677 121.228784,13.2797677 C121.932247,13.2797677 122.71162,12.9854792 123.300129,12.4704743 C123.568303,12.231365 123.73991,12.0474347 123.999252,11.624395 L127.085001,12.1577928 C126.534729,12.9486931 126.097476,13.4453049 125.517842,13.9787028 C124.012691,15.339787 122.04023,16.0939013 119.952291,16.0939013 C118.224341,16.0939013 116.990276,15.5421104 116.450662,14.5121007 C115.863447,13.463698 115.992706,11.8451113 116.779356,10.0425944 C118.384764,6.36398838 121.700732,4.00968054 125.24247,4.00968054 C128.039534,4.00968054 129.361901,5.40755082 128.872725,7.85382381 Z M127.319285,12.3233301 L131.074441,11.9186834 C130.826647,12.875121 131.25045,13.2981607 132.458945,13.2981607 C133.54118,13.2981607 134.295309,12.9854792 134.552176,12.4152953 C134.676466,12.1393998 134.639735,11.9002904 134.453193,11.7531462 C134.266596,11.6060019 134.06491,11.5324298 133.162411,11.3301065 C131.913178,11.054211 131.290859,10.8702807 130.785004,10.6679574 C130.065316,10.3368829 129.657442,9.91384318 129.559821,9.36205227 C129.491627,8.86544046 129.607292,8.24007744 129.885831,7.61471442 C130.86891,5.40755082 133.301312,4.06485963 136.334368,4.06485963 C138.059759,4.06485963 139.174958,4.45111326 139.670917,5.24201355 C140.028456,5.77541142 140.077281,6.30880929 139.90102,7.33881897 L136.230408,7.7250726 C136.479277,6.97095837 136.175115,6.63988383 135.196245,6.63988383 C134.25363,6.63988383 133.533508,6.95256534 133.319312,7.43078412 C133.096878,7.92739593 133.394749,8.11132623 135.005477,8.51597289 C136.605318,8.90222652 137.091612,9.06776379 137.575357,9.39883833 C138.484801,9.9874153 138.637039,10.8886738 138.037082,12.2129719 C137.595447,13.1878025 136.870993,14.070668 136.009866,14.6592449 C134.74617,15.5421104 133.062408,16.0019361 131.136331,16.0019361 C128.86824,16.0019361 127.545239,15.3765731 127.221722,14.1626331 C127.090554,13.6476283 127.106749,13.2061955 127.319285,12.3233301 Z" id="Speedmetrics" fill="url(#linearGradient-1)"></path>
    </g>
</svg>