<?xml version="1.0" encoding="UTF-8" standalone="no"?>
<svg width="228px" height="503px" viewBox="0 0 228 503" version="1.1" xmlns="http://www.w3.org/2000/svg" xmlns:xlink="http://www.w3.org/1999/xlink">
    <!-- Generator: Sketch 3.8.3 (29802) - http://www.bohemiancoding.com/sketch -->
    <title>gulp-bro</title>
    <desc>Created with Sketch.</desc>
    <defs></defs>
    <g id="Page-1" stroke="none" stroke-width="1" fill="none" fill-rule="evenodd">
        <g id="gulp" fill="#DA4648">
            <path d="M112.983771,397.108075 C83.5730743,397.108075 60.8473371,392.689233 49.9189714,390.05565 C42.4457829,388.254754 36.4448229,386.391308 31.8861257,384.477041 L46.4611886,409.38336 L52.1624914,487.203715 C52.1624914,495.928028 79.8716571,503 114.052114,503 C148.232571,503 175.941737,495.928028 175.941737,487.203715 L180.456137,408.536339 L194.24688,384.404067 C189.66864,386.344396 183.614263,388.232601 176.047269,390.05565 C165.118903,392.689233 142.393166,397.108075 112.983771,397.108075 L112.983771,397.108075 Z M114.052114,148.554404 C83.6186743,148.554404 54.9701486,146.89294 33.3844114,143.877547 C22.6918629,142.384184 14.2324114,140.622381 8.24057143,138.644262 C6.81133714,138.171233 4.38932571,137.364609 2.05851429,136.079744 L26.4857829,375.106386 C28.4231314,379.963073 64.8953143,391.89564 112.983771,391.89564 C161.094377,391.89564 197.580891,379.951345 199.484366,375.098567 L226.052229,136.075834 C223.720114,137.363306 221.294194,138.171233 219.863657,138.644262 C213.87312,140.622381 205.413669,142.384184 194.719817,143.877547 C173.13408,146.89294 144.485554,148.554404 114.052114,148.554404 Z M113.966126,112.054326 C51.3657917,112.054326 0.617554286,119.055123 0.617554286,127.691632 C0.617554286,136.328141 51.3657917,143.328938 113.966126,143.328938 C176.56646,143.328938 227.314697,136.328141 227.314697,127.691632 C227.314697,119.055123 176.56646,112.054326 113.966126,112.054326 L113.966126,112.054326 Z M159.224777,132.261635 C159.224777,134.287969 153.193851,135.931189 145.753234,135.931189 C138.31392,135.931189 132.282994,134.287969 132.282994,132.261635 C132.282994,130.233997 138.31392,128.590777 145.753234,128.590777 C153.193851,128.590777 159.224777,130.233997 159.224777,132.261635 L159.224777,132.261635 Z" id="Cup"></path>
            <path d="M135.010858,130.639256 C134.944066,130.745766 134.909554,130.854524 134.909554,130.965041 C134.909554,132.277272 139.765303,133.339306 145.753234,133.339306 C151.742469,133.339306 156.596914,132.277272 156.596914,130.965041 L170.760274,73.5266114 L227.086757,14.0465212 C227.105148,14.0283743 227.122937,14.0095945 227.140114,13.9901762 C228.332229,12.6414585 225.912823,8.46760104 221.89872,4.88796114 C217.884617,1.30832124 213.550011,0.0964300518 212.202857,1.45948187 C212.192787,1.46967586 212.182966,1.48001386 212.17339,1.4904947 L152.076,64.7410518 L135.010858,130.639256 L135.010858,130.639256 Z" id="Straw"></path>
        </g>
        <g id="wizard-hat" transform="translate(35.000000, 172.000000)" fill="#FFFFFF">
            <path d="M106.931868,84.575 L105.359341,85.1 L109.028571,98.575 L110.601099,98.05 L109.902198,96.475 C109.203297,96.825 94.7010989,103.475 77.2285714,103.475 C67.9681319,103.475 57.8340659,101.55 48.3989011,96.125 L47.5252747,97.525 L49.2725275,97.875 L52.0681319,84.925 C52.2428571,84.4 52.0681319,83.875 51.7186813,83.35 C51.3692308,83 50.8450549,82.65 50.3208791,82.825 C35.9934066,84.225 23.5879121,86.85 14.8516484,90 C10.4835165,91.575 6.81428571,93.5 4.36813187,95.6 C3.14505495,96.65 2.0967033,97.7 1.22307692,98.925 C0.349450549,100.15 0,101.55 0,102.95 C0,104.7 0.698901099,106.45 1.92197802,108.025 C4.01868132,110.65 7.51318681,112.75 12.2307692,114.85 C19.2197802,117.825 28.8296703,120.1 40.1868132,121.85 C51.543956,123.6 64.6483516,124.475 78.8010989,124.475 C100.117582,124.475 119.512088,122.2 133.664835,118.7 C140.653846,116.95 146.41978,114.675 150.613187,112.225 C152.70989,111 154.282418,109.6 155.505495,108.2 C156.728571,106.625 157.427473,105.05 157.427473,103.125 C157.427473,101.725 157.078022,100.325 156.204396,99.1 C154.981319,97 152.70989,95.25 149.914286,93.5 C145.546154,91.05 139.605495,88.95 132.441758,87.2 C125.278022,85.45 116.716484,84.05 107.281319,83 C106.757143,83 106.232967,83.175 105.883516,83.525 C105.534066,83.875 105.359341,84.575 105.534066,85.1 L106.931868,84.575 L106.757143,86.325 C120.90989,87.725 132.965934,90.175 141.352747,93.325 C145.546154,94.9 148.865934,96.65 150.962637,98.225 C152.010989,99.1 152.70989,99.975 153.234066,100.675 C153.758242,101.375 153.932967,102.075 153.932967,102.775 C153.932967,103.65 153.583516,104.7 152.70989,105.75 C151.312088,107.675 148.167033,109.6 143.798901,111.525 C137.334066,114.325 127.898901,116.6 116.716484,118.35 C105.534066,119.925 92.6043956,120.975 78.6263736,120.975 C57.4846154,120.975 38.4395604,118.7 24.6362637,115.2 C17.821978,113.45 12.2307692,111.35 8.56153846,109.075 C6.81428571,108.025 5.41648352,106.8 4.54285714,105.75 C3.84395604,104.7 3.49450549,103.825 3.49450549,102.95 C3.49450549,102.25 3.66923077,101.55 4.19340659,100.85 C5.06703297,99.45 6.81428571,97.875 9.26043956,96.475 C13.1043956,94.2 18.8703297,92.1 25.8593407,90.525 C32.8483516,88.775 41.2351648,87.375 50.6703297,86.5 L50.4956044,84.75 L48.7483516,84.4 L45.9527473,97.35 C45.778022,98.05 46.1274725,98.75 46.8263736,99.275 C56.7857143,105.225 67.6186813,107.15 77.4032967,107.15 C96.2736264,107.15 111.474725,99.975 111.649451,99.975 C112.348352,99.625 112.872527,98.75 112.523077,98.05 L108.853846,84.575 L106.931868,84.575 L106.757143,86.325 L106.931868,84.575 L106.931868,84.575 Z" id="Shape"></path>
            <path d="M47.5252747,97.525 L49.2725275,97.875 L61.5032967,42.75 L118.813187,4.6 L134.363736,35.225 L117.240659,26.65 C116.541758,26.3 115.842857,26.475 115.318681,26.825 L95.2252747,45.375 C94.7010989,45.725 94.5263736,46.425 94.7010989,47.125 L109.028571,98.4 L110.601099,97.875 L109.902198,96.3 C109.203297,96.65 94.7010989,103.3 77.2285714,103.3 C67.9681319,103.3 57.8340659,101.375 48.3989011,95.95 L47.5252747,97.525 L49.2725275,97.875 L47.5252747,97.525 L46.6516484,98.925 C56.610989,104.875 67.443956,106.8 77.2285714,106.8 C96.0989011,106.8 111.3,99.625 111.474725,99.625 C112.173626,99.275 112.697802,98.4 112.348352,97.7 L98.3703297,47.3 L116.891209,30.5 L137.508791,40.825 C138.207692,41.175 138.906593,41 139.430769,40.475 C139.954945,39.95 140.12967,39.075 139.78022,38.55 L121.084615,1.45 C120.90989,1.1 120.385714,0.75 120.036264,0.575 C119.512088,0.4 118.987912,0.575 118.638462,0.75 L58.8824176,40.3 C58.532967,40.475 58.1835165,41 58.1835165,41.35 L45.778022,97.175 C45.6032967,97.875 45.9527473,98.575 46.6516484,99.1 L47.5252747,97.525 L47.5252747,97.525 Z" id="Shape"></path>
            <path d="M51.0197802,78.8 C51.1945055,78.975 59.2318681,85.45 74.432967,85.45 C82.6450549,85.45 92.9538462,83.525 105.00989,77.75 C105.883516,77.4 106.232967,76.35 105.883516,75.475 C105.534066,74.6 104.485714,74.25 103.612088,74.6 C91.9054945,80.2 82.2956044,81.95 74.6076923,81.95 C67.6186813,81.95 62.2021978,80.375 58.532967,78.975 C56.7857143,78.275 55.3879121,77.4 54.5142857,76.875 C53.9901099,76.525 53.8153846,76.35 53.4659341,76.175 L53.2912088,76 L52.767033,76.525 L53.2912088,76 L52.767033,76.525 L53.2912088,76 C52.5923077,75.475 51.543956,75.475 50.8450549,76.175 C50.1461538,77.05 50.3208791,78.1 51.0197802,78.8 L51.0197802,78.8 L51.0197802,78.8 Z" id="Shape"></path>
            <path d="M96.6230769,44.85 L88.2362637,43.975 C87.3626374,43.8 86.489011,44.5 86.3142857,45.55 C86.1395604,46.425 86.8384615,47.3 87.8868132,47.475 L96.2736264,48.35 C97.1472527,48.525 98.0208791,47.825 98.1956044,46.775 C98.1956044,45.9 97.4967033,45.025 96.6230769,44.85" id="Shape"></path>
            <path d="M118.289011,28.225 L117.93956,22.45 C117.93956,21.575 117.065934,20.875 116.192308,20.875 C115.318681,20.875 114.61978,21.75 114.61978,22.625 L114.969231,28.4 C114.969231,29.275 115.842857,29.975 116.716484,29.975 C117.59011,29.975 118.289011,29.275 118.289011,28.225" id="Shape"></path>
        </g>
        <path d="M104.953125,321.742188 C104.953125,323.71876 104.391607,325.455722 103.268555,326.953125 C102.145502,328.450528 100.565765,329.738276 98.5292969,330.816406 C100.865246,332.253913 102.033203,334.36522 102.033203,337.150391 C102.033203,339.456392 101.344408,341.49283 99.9667969,343.259766 C98.3795494,345.296234 96.3281376,346.314453 93.8125,346.314453 C92.6445254,346.314453 91.581385,346.059898 90.6230469,345.550781 C89.6647087,345.041664 89.1855469,344.472659 89.1855469,343.84375 C89.3053391,343.244789 89.4101558,342.810548 89.5,342.541016 C89.8294287,341.672522 90.2486954,341.238281 90.7578125,341.238281 C91.1471374,341.238281 91.9257754,341.687496 93.09375,342.585938 C93.6627633,343.035158 94.1718728,343.259766 94.6210938,343.259766 C95.4895877,343.259766 96.2682257,342.6683 96.9570312,341.485352 C97.6458368,340.302403 97.9902344,338.977221 97.9902344,337.509766 C97.9902344,336.401687 97.8105487,335.435877 97.4511719,334.612305 C97.0917951,333.788733 96.4928427,333.032556 95.6542969,332.34375 C95.4446604,332.403646 95.1002628,332.478515 94.6210938,332.568359 C94.1419247,332.658204 93.6927104,332.703125 93.2734375,332.703125 C92.7343723,332.703125 92.3375664,332.650717 92.0830078,332.545898 C91.8284492,332.44108 91.7011719,332.208986 91.7011719,331.849609 C91.7011719,330.322258 92.4348885,329.468751 93.9023438,329.289062 C96.1783968,328.989582 97.885411,328.31576 99.0234375,327.267578 C100.490893,325.710279 101.224609,323.988291 101.224609,322.101562 C101.224609,321.023432 101.000002,320.169925 100.550781,319.541016 C100.10156,318.912106 99.4726603,318.597656 98.6640625,318.597656 C96.7174382,318.597656 94.6061312,320.424461 92.3300781,324.078125 C89.9641809,327.911477 87.9576905,332.867808 86.3105469,338.947266 C85.8912739,340.654305 85.494468,342.061843 85.1201172,343.169922 C84.7457664,344.278 84.4462902,345.041665 84.2216797,345.460938 C83.9970692,345.88021 83.779949,346.127278 83.5703125,346.202148 C83.360676,346.277019 82.8815142,346.314453 82.1328125,346.314453 C81.473955,346.314453 81.0397146,346.239584 80.8300781,346.089844 C80.6204417,345.940103 80.515625,345.640627 80.515625,345.191406 C80.515625,344.083328 81.1295512,341.964534 82.3574219,338.834961 C83.5852926,335.705388 84.4387997,333.129893 84.9179688,331.108398 C85.3971378,329.086904 85.6367188,327.102874 85.6367188,325.15625 C85.6367188,323.628899 85.5019545,322.206387 85.2324219,320.888672 C84.9628893,319.570957 84.5436226,318.432948 83.9746094,317.474609 C83.9147132,317.384765 83.8697918,317.264975 83.8398438,317.115234 C83.8398438,317.085286 83.8248699,317.025391 83.7949219,316.935547 C83.7949219,316.790018 84.1992147,316.51347 85.0078125,316.105896 C85.8164103,315.698322 86.4752579,315.450786 86.984375,315.363281 C87.7157629,316.321619 88.2130572,317.474603 88.4762726,318.822266 C88.739488,320.169929 88.8710938,321.652336 88.8710938,323.269531 L88.8710938,325.380859 C90.0989645,322.805326 91.3417906,320.768888 92.5996094,319.271484 C94.7858182,316.666003 97.1067586,315.363281 99.5625,315.363281 C101.089851,315.363281 102.370112,315.96972 103.40332,317.182617 C104.436529,318.395514 104.953125,319.915355 104.953125,321.742188 L104.953125,321.742188 Z M106.255859,341.6875 L106.255859,337.958984 C107.932951,336.311841 109.115882,335.098962 109.804688,334.320312 C111.15235,332.792961 112.155596,331.325528 112.814453,329.917969 C112.39518,329.079423 112.185547,328.405602 112.185547,327.896484 C112.185547,326.968094 112.282877,326.241865 112.477539,325.717773 C112.672201,325.193682 113.143876,324.931641 113.892578,324.931641 C115.120449,324.931641 115.884113,325.021483 116.183594,325.201172 C116.483074,325.38086 116.632812,325.800127 116.632812,326.458984 C116.632812,327.117842 116.408205,328.046218 115.958984,329.244141 C117.486336,329.783206 118.519529,330.217446 119.058594,330.546875 C120.376309,331.325525 121.035156,332.613272 121.035156,334.410156 C121.035156,335.27865 120.825523,336.326817 120.40625,337.554688 C119.447912,340.339858 118.96875,341.88216 118.96875,342.181641 C118.96875,342.690758 119.208331,342.945312 119.6875,342.945312 C121.005215,342.945312 123.415998,341.193377 126.919922,337.689453 L126.919922,341.507812 C123.116517,344.772152 120.091808,346.404297 117.845703,346.404297 C117.007157,346.404297 116.333336,346.074873 115.824219,345.416016 C115.315102,344.757158 115.060547,343.903651 115.060547,342.855469 C115.060547,341.807286 115.449866,340.354827 116.228516,338.498047 C117.007165,336.641267 117.396484,335.368493 117.396484,334.679688 C117.396484,333.332025 116.617846,332.343753 115.060547,331.714844 C114.102209,333.691416 112.410168,335.862618 109.984375,338.228516 C109.175777,339.007165 107.932951,340.160149 106.255859,341.6875 L106.255859,341.6875 Z M141.923828,340.564453 C139.767567,344.427754 136.997413,346.359375 133.613281,346.359375 C131.816397,346.359375 130.408859,345.79037 129.390625,344.652344 C128.372391,343.514317 127.863281,341.91212 127.863281,339.845703 C127.863281,336.521468 128.844066,333.7588 130.805664,331.557617 C132.767262,329.356434 135.350244,328.255859 138.554688,328.255859 L138.375,330.816406 C136.128895,331.145835 134.481776,332.05175 133.433594,333.53418 C132.385411,335.016609 131.861328,336.955717 131.861328,339.351562 C131.861328,342.076837 132.744783,343.439453 134.511719,343.439453 C135.619797,343.439453 136.690425,342.833014 137.723633,341.620117 C138.756841,340.40722 139.423176,338.977222 139.722656,337.330078 C140.396484,335.139122 139.977211,330.516931 140.396484,329.828125 L143.40625,329.828125 C143.55599,330.397138 143.645833,330.913735 143.675781,331.37793 C143.705729,331.842125 143.720703,332.208983 143.720703,332.478516 C143.720703,334.125659 143.720703,337.330078 141.923828,340.564453 Z" id="Bro" fill="#FFFFFF"></path>
    </g>
</svg>