<?xml version="1.0" encoding="UTF-8"?>
<svg width="59px" height="19px" viewBox="0 0 59 19" version="1.1" xmlns="http://www.w3.org/2000/svg" xmlns:xlink="http://www.w3.org/1999/xlink">
    <!-- Generator: Sketch 51.3 (57544) - http://www.bohemiancoding.com/sketch -->
    <title>Artboard</title>
    <desc>Created with Sketch.</desc>
    <defs>
        <linearGradient x1="5.94535719%" y1="80.3487917%" x2="94.0860597%" y2="38.3809799%" id="linearGradient-1">
            <stop stop-color="#FAD961" offset="0%"></stop>
            <stop stop-color="#F76B1C" offset="100%"></stop>
        </linearGradient>
    </defs>
    <g id="Artboard" stroke="none" stroke-width="1" fill="none" fill-rule="evenodd">
        <path d="M3.74435045,16.6823529 L0,16.6823529 C0.427214739,15.8529412 0.748158552,15.1117647 1.168539,14.0176471 L4.76211381,4.66470588 C5.22995657,3.44705882 5.4854573,2.68823529 5.64175415,2 L9.37265664,2 C8.96684312,2.77647059 8.68723391,3.41176471 8.20688939,4.66470588 L7.48975532,6.53529412 C7.43563199,6.67647059 7.30933972,6.95882353 7.24845027,7.11764706 C8.72335686,6.09411765 10.0288874,5.65294118 11.5622744,5.65294118 C12.788984,5.65294118 13.635081,5.98823529 14.0533472,6.64117647 C14.5057675,7.34705882 14.4826854,8.21176471 13.9508269,9.60588235 L12.2609979,14.0352941 C11.8705195,15.0588235 11.5881563,15.9411765 11.3958492,16.6823529 L7.6334101,16.6823529 C8.06582365,15.8352941 8.38538334,15.0941176 8.79697342,14.0176471 L10.180186,10.4 C10.4500811,9.69411765 10.4993086,9.37647059 10.3973594,9.07647059 C10.2660845,8.75882353 9.92966845,8.6 9.42418761,8.6 C8.39517305,8.6 7.16335004,9.27058824 5.99459844,10.4352941 L4.62121904,14.0176471 C4.23559034,15.0235294 3.98761205,15.7647059 3.74435045,16.6823529 Z M22.4889528,9.71176471 L22.6429445,9.30588235 C22.9643185,8.45882353 22.5881492,8.07058824 21.3968132,8.07058824 C20.2415784,8.07058824 19.4869423,8.44117647 18.8872944,9.30588235 L15.6471163,8.75882353 C16.4049563,7.71764706 17.0171753,7.15294118 17.9767243,6.62352941 C19.2063034,5.95294118 20.6688383,5.61764706 22.4186883,5.61764706 C23.7536254,5.61764706 24.9588103,5.86470588 25.5219555,6.23529412 C26.44277,6.85294118 26.5805964,7.82352941 25.9793343,9.41176471 L24.1755481,14.1764706 C23.768026,15.2529412 23.5636914,15.8882353 23.3535106,16.6823529 L19.8443126,16.6823529 L20.1522961,15.8705882 C18.8514473,16.6294118 17.7245274,16.9294118 16.2411685,16.9294118 C14.866348,16.9294118 13.9562075,16.6117647 13.4814602,15.9588235 C13.0523671,15.3764706 13.0317482,14.5294118 13.4018016,13.5588235 C13.8256809,12.4470588 14.6137432,11.5647059 15.7027553,10.9823529 C16.8658584,10.3470588 18.2168996,9.97647059 19.895858,9.83529412 C20.6269468,9.76470588 21.1753889,9.74705882 22.4889528,9.71176471 Z M21.4444873,12.4647059 L21.6319555,11.9705882 C20.0105167,12.0058824 19.2000666,12.0941176 18.3720499,12.3235294 C17.6410135,12.5352941 17.0756337,12.9764706 16.8809472,13.4882353 C16.6392673,14.1235294 17.0406564,14.4941176 17.9807627,14.4941176 C18.7220004,14.4941176 19.636057,14.2294118 20.2782139,13.8235294 C20.827888,13.4705882 21.2436286,12.9941176 21.4444873,12.4647059 Z M34.4623407,9.71176471 L34.6151416,9.30588235 C34.9340304,8.45882353 34.556722,8.07058824 33.3653861,8.07058824 C32.2101512,8.07058824 31.4566024,8.44117647 30.8594914,9.30588235 L27.6177083,8.75882353 C28.3724937,7.71764706 28.9830559,7.15294118 29.9410516,6.62352941 C31.1686634,5.95294118 32.6302145,5.61764706 34.3800645,5.61764706 C35.7150016,5.61764706 36.9209114,5.86470588 37.4851438,6.23529412 C38.4077704,6.85294118 38.5484444,7.82352941 37.951842,9.41176471 L36.1620349,14.1764706 C35.757671,15.2529412 35.5552003,15.8882353 35.3473494,16.6823529 L31.8381514,16.6823529 L32.1437532,15.8705882 C30.8451307,16.6294118 29.719091,16.9294118 28.2357321,16.9294118 C26.8609116,16.9294118 25.9498392,16.6117647 25.4731762,15.9588235 C25.0423745,15.3764706 25.0192705,14.5294118 25.3864763,13.5588235 C25.8070938,12.4470588 26.5925674,11.5647059 27.679871,10.9823529 C28.8411101,10.3470588 30.1910641,9.97647059 31.8696083,9.83529412 C32.60049,9.76470588 33.1488804,9.74705882 34.4623407,9.71176471 Z M33.425952,12.4647059 L33.6119705,11.9705882 C31.9906353,12.0058824 31.180444,12.0941176 30.3531004,12.3235294 C29.6226853,12.5352941 29.0585998,12.9764706 28.8654147,13.4882353 C28.6255988,14.1235294 29.0280751,14.4941176 29.9681814,14.4941176 C30.7094191,14.4941176 31.6226992,14.2294118 32.2636652,13.8235294 C32.8123038,13.4705882 33.2266465,12.9941176 33.425952,12.4647059 Z M37.3681255,13.4705882 L41.0922709,13.0823529 C40.9293504,14 41.392024,14.4058824 42.6032887,14.4058824 C43.6880033,14.4058824 44.4147624,14.1058824 44.6191572,13.5588235 C44.718058,13.2941176 44.6591908,13.0647059 44.4589346,12.9235294 C44.2586959,12.7823529 44.0501566,12.7117647 43.1288637,12.5176471 C41.8546385,12.2529412 41.2160503,12.0764706 40.6925411,11.8823529 C39.9444079,11.5647059 39.5004756,11.1588235 39.3558817,10.6294118 C39.245689,10.1529412 39.3083271,9.55294118 39.5335029,8.95294118 C40.3282414,6.83529412 42.6336845,5.54705882 45.6462607,5.54705882 C47.3600016,5.54705882 48.5024299,5.91764706 49.0671915,6.67647059 C49.4717581,7.18823529 49.5696427,7.7 49.4899347,8.68823529 L45.8671518,9.05882353 C46.0472987,8.33529412 45.7147626,8.01764706 44.7400459,8.01764706 C43.8014297,8.01764706 43.1114774,8.31764706 42.9396597,8.77647059 C42.7612336,9.25294118 43.0743375,9.42941176 44.7167586,9.81764706 C46.3480511,10.1882353 46.8486081,10.3470588 47.3621781,10.6647059 C48.3256136,11.2294118 48.5632573,12.0941176 48.0895907,13.3647059 C47.7409195,14.3 47.0996683,15.1470588 46.2923212,15.7117647 C45.1081233,16.5588235 43.460078,17 41.5244421,17 C39.2450952,17 37.8600916,16.4 37.4289304,15.2352941 C37.2527375,14.7411765 37.2309146,14.3176471 37.3681255,13.4705882 Z M53.1580739,5.91764706 L53.2960184,5.54705882 C53.6244574,4.66470588 53.851144,3.95882353 54.051712,3.12941176 L57.7295629,3.12941176 C57.3707109,3.85294118 57.0020184,4.7 56.6874215,5.54705882 L56.5497854,5.91764706 L57.199262,5.91764706 C57.9930668,5.91764706 58.4145563,5.9 59,5.82941176 L57.913756,8.75882353 C57.3983323,8.68823529 56.9420431,8.65294118 56.2921307,8.65294118 L55.5338996,8.65294118 L53.8560496,13.1705882 C53.6725347,13.6647059 53.6711592,13.9117647 53.8471781,14.0705882 C54.0001632,14.1941176 54.2632031,14.2647059 54.6066842,14.2647059 C55.0767109,14.2647059 55.45292,14.1764706 55.9899263,13.9470588 L55.2666195,16.6294118 C54.3609971,16.8764706 53.6162121,16.9823529 52.6393533,16.9823529 C51.4092349,16.9823529 50.6311904,16.7882353 50.209892,16.3647059 C49.7130397,15.8529412 49.6831885,15.2529412 50.1298657,14.0529412 L52.1399128,8.65294118 L51.4538942,8.65294118 C50.8761943,8.65294118 50.3936606,8.68823529 49.8438014,8.75882353 L50.9424179,5.81176471 C51.4392888,5.88235294 51.8771617,5.91764706 52.5085973,5.91764706 L53.1580739,5.91764706 Z" id="haast" fill="url(#linearGradient-1)"></path>
    </g>
</svg>