<?xml version="1.0" encoding="UTF-8"?>
<svg width="600px" height="200px" viewBox="0 0 600 200" version="1.1" xmlns="http://www.w3.org/2000/svg" xmlns:xlink="http://www.w3.org/1999/xlink">
    <!-- Generator: Sketch 55.2 (78181) - https://sketchapp.com -->
    <title>fauda</title>
    <desc>Created with Sketch.</desc>
    <defs>
        <linearGradient x1="0%" y1="50%" x2="100%" y2="50%" id="linearGradient-1">
            <stop stop-color="#329AE7" offset="0%"></stop>
            <stop stop-color="#5835D8" offset="52.6288007%"></stop>
            <stop stop-color="#DB306A" offset="100%"></stop>
        </linearGradient>
        <linearGradient x1="0%" y1="50%" x2="100%" y2="50%" id="linearGradient-2">
            <stop stop-color="#329AE7" offset="0%"></stop>
            <stop stop-color="#5835D8" offset="52.6288007%"></stop>
            <stop stop-color="#DB306A" offset="100%"></stop>
        </linearGradient>
        <linearGradient x1="0%" y1="50%" x2="84.5280828%" y2="50%" id="linearGradient-3">
            <stop stop-color="#32CD61" stop-opacity="0.4" offset="0%"></stop>
            <stop stop-color="#329AE7" offset="100%"></stop>
        </linearGradient>
        <linearGradient x1="0%" y1="50%" x2="84.5280828%" y2="50%" id="linearGradient-4">
            <stop stop-color="#D5DF40" stop-opacity="0.4" offset="0%"></stop>
            <stop stop-color="#329AE7" offset="100%"></stop>
        </linearGradient>
        <linearGradient x1="0%" y1="50%" x2="84.5280828%" y2="50%" id="linearGradient-5">
            <stop stop-color="#ECBE4D" stop-opacity="0.4" offset="0%"></stop>
            <stop stop-color="#329AE7" offset="100%"></stop>
        </linearGradient>
        <linearGradient x1="0%" y1="50%" x2="84.5280828%" y2="50%" id="linearGradient-6">
            <stop stop-color="#E22F2B" stop-opacity="0.4" offset="0%"></stop>
            <stop stop-color="#329AE7" offset="100%"></stop>
        </linearGradient>
        <linearGradient x1="0%" y1="50%" x2="84.5280828%" y2="50%" id="linearGradient-7">
            <stop stop-color="#CCCD32" stop-opacity="0.4" offset="0%"></stop>
            <stop stop-color="#DB306B" offset="100%"></stop>
        </linearGradient>
        <linearGradient x1="0%" y1="50%" x2="84.5280828%" y2="50%" id="linearGradient-8">
            <stop stop-color="#67DF40" stop-opacity="0.4" offset="0%"></stop>
            <stop stop-color="#DB306B" offset="100%"></stop>
        </linearGradient>
        <linearGradient x1="0%" y1="50%" x2="84.5280828%" y2="50%" id="linearGradient-9">
            <stop stop-color="#4DECBE" stop-opacity="0.4" offset="0%"></stop>
            <stop stop-color="#DB306B" offset="100%"></stop>
        </linearGradient>
        <linearGradient x1="0%" y1="50%" x2="84.5280828%" y2="50%" id="linearGradient-10">
            <stop stop-color="#40A9DF" stop-opacity="0.4" offset="0%"></stop>
            <stop stop-color="#DA306B" offset="100%"></stop>
        </linearGradient>
    </defs>
    <g id="fauda" stroke="none" stroke-width="1" fill="none" fill-rule="evenodd">
        <text fill="url(#linearGradient-1)" font-family="RalewayRoman-ExtraBold, Raleway" font-size="72" font-weight="600">
            <tspan x="198.343258" y="126">fauda</tspan>
        </text>
        <g id="Group-2" transform="translate(-11.000000, 105.000000)" stroke-linecap="square">
            <path d="M210.59854,35.6546671 L408.402433,35.6546671" id="Line" stroke="url(#linearGradient-2)" stroke-width="5"></path>
            <g id="Group" stroke-width="1.5">
                <path d="M1,38.616341 C6.57869778,40.5869434 12.103176,41.5722446 17.5734347,41.5722446 C25.7788226,41.5722446 33.7951684,33.5546671 44.607178,33.5546671 C55.4191877,33.5546671 68.0479642,39.4265539 79.8619397,40.4993993 C91.6759152,41.5722446 98.0022789,37.7863048 107.724412,37.6604374 C117.446544,37.5345701 120.163751,40.537259 131.773299,41.0547518 C143.382847,41.5722446 152.891639,38.1380905 157.719663,37.6604374 C162.547687,37.1827844 174.984597,38.4456491 184.474013,38.4456491 C187.859344,38.4456491 192.3389,37.6926007 197.15515,37.278974 C199.944504,37.0394202 204.542232,37.0394202 210.948336,37.278974" id="Line-Copy" stroke="url(#linearGradient-3)"></path>
                <path d="M1.94768264,33.615428 C7.52638043,35.5860304 13.0508586,36.5713316 18.5211173,36.5713316 C26.7265053,36.5713316 34.8475496,25.5519266 45.6595592,25.5519266 C56.4715688,25.5519266 69.0822822,32.3915656 80.8962577,33.464411 C92.7102332,34.5372563 98.984861,31.7847826 108.706994,31.6589152 C118.429126,31.5330479 121.111433,35.536346 132.720982,36.0538388 C144.33053,36.5713316 153.874221,32.1365683 158.702245,31.6589152 C163.530269,31.1812622 175.932279,34.4447364 185.421695,34.4447364 C188.807027,34.4447364 193.286583,32.6916877 198.102833,32.278061 C200.892186,32.0385071 205.489915,32.0385071 211.896019,32.278061" id="Line-Copy-2" stroke="url(#linearGradient-4)" transform="translate(106.921851, 31.061629) rotate(2.000000) translate(-106.921851, -31.061629) "></path>
                <path d="M1.93032849,27.6163442 C7.55553059,30.2519893 13.103261,31.5698118 18.5735196,31.5698118 C26.7789076,31.5698118 34.7952534,17.5522343 45.607263,17.5522343 C56.4192726,17.5522343 67.1854383,26.6637395 78.9994138,27.7365849 C90.8133893,28.8094303 99.0023638,25.783872 108.724496,25.6580046 C118.446629,25.5321373 121.163836,30.5348262 132.773384,31.052319 C144.382932,31.5698118 154.291491,26.9039232 159.119515,26.4262702 C163.947539,25.9486171 175.984682,29.4432167 185.474098,29.4432167 C188.859429,29.4432167 193.338985,27.6901679 198.155235,27.2765412 C200.944589,27.0369873 205.542317,27.0369873 211.948421,27.2765412" id="Line-Copy-3" stroke="url(#linearGradient-5)" transform="translate(106.939375, 24.561023) rotate(4.000000) translate(-106.939375, -24.561023) "></path>
                <path d="M1.19609137,19.2217549 C8.22068207,23.0342844 14.4681067,24.9405491 19.9383654,24.9405491 C28.1437534,24.9405491 35.7342624,12 46.546272,12 C57.3582816,12 70.206456,22.9438374 82.0204315,24.0166827 C93.8344071,25.0895281 100.045901,21.2261595 109.768034,21.1002922 C119.490167,20.9744249 122.94844,26.7149935 134.557988,27.2324864 C146.167536,27.7499792 155.03979,22.5724676 159.867814,22.0948145 C164.695838,21.6171614 177.028219,24.8855042 186.517635,24.8855042 C189.902967,24.8855042 194.487051,24.1269774 199.303301,23.7133506 C202.092655,23.4737968 206.65554,23.1422895 212.991959,22.7188287" id="Line-Copy-4" stroke="url(#linearGradient-6)" transform="translate(107.094025, 19.634398) rotate(6.000000) translate(-107.094025, -19.634398) "></path>
            </g>
            <g id="Group-Copy" transform="translate(515.000000, 21.000000) scale(-1, 1) translate(-515.000000, -21.000000) translate(408.000000, 0.000000)" stroke-width="1.5">
                <path d="M1,38.616341 C6.57869778,40.5869434 12.103176,41.5722446 17.5734347,41.5722446 C25.7788226,41.5722446 33.7951684,33.5546671 44.607178,33.5546671 C55.4191877,33.5546671 68.0479642,39.4265539 79.8619397,40.4993993 C91.6759152,41.5722446 98.0022789,37.7863048 107.724412,37.6604374 C117.446544,37.5345701 120.163751,40.537259 131.773299,41.0547518 C143.382847,41.5722446 152.891639,38.1380905 157.719663,37.6604374 C162.547687,37.1827844 174.984597,38.4456491 184.474013,38.4456491 C187.859344,38.4456491 192.3389,37.6926007 197.15515,37.278974 C199.944504,37.0394202 204.542232,37.0394202 210.948336,37.278974" id="Line-Copy" stroke="url(#linearGradient-7)"></path>
                <path d="M1.94768264,33.615428 C7.52638043,35.5860304 13.0508586,36.5713316 18.5211173,36.5713316 C26.7265053,36.5713316 34.8475496,25.5519266 45.6595592,25.5519266 C56.4715688,25.5519266 69.0822822,32.3915656 80.8962577,33.464411 C92.7102332,34.5372563 98.984861,31.7847826 108.706994,31.6589152 C118.429126,31.5330479 121.111433,35.536346 132.720982,36.0538388 C144.33053,36.5713316 153.874221,32.1365683 158.702245,31.6589152 C163.530269,31.1812622 175.932279,34.4447364 185.421695,34.4447364 C188.807027,34.4447364 193.286583,32.6916877 198.102833,32.278061 C200.892186,32.0385071 205.489915,32.0385071 211.896019,32.278061" id="Line-Copy-2" stroke="url(#linearGradient-8)" transform="translate(106.921851, 31.061629) rotate(2.000000) translate(-106.921851, -31.061629) "></path>
                <path d="M1.93032849,27.6163442 C7.55553059,30.2519893 13.103261,31.5698118 18.5735196,31.5698118 C26.7789076,31.5698118 34.7952534,17.5522343 45.607263,17.5522343 C56.4192726,17.5522343 67.1854383,26.6637395 78.9994138,27.7365849 C90.8133893,28.8094303 99.0023638,25.783872 108.724496,25.6580046 C118.446629,25.5321373 121.163836,30.5348262 132.773384,31.052319 C144.382932,31.5698118 154.291491,26.9039232 159.119515,26.4262702 C163.947539,25.9486171 175.984682,29.4432167 185.474098,29.4432167 C188.859429,29.4432167 193.338985,27.6901679 198.155235,27.2765412 C200.944589,27.0369873 205.542317,27.0369873 211.948421,27.2765412" id="Line-Copy-3" stroke="url(#linearGradient-9)" transform="translate(106.939375, 24.561023) rotate(4.000000) translate(-106.939375, -24.561023) "></path>
                <path d="M1.19609137,19.2217549 C8.22068207,23.0342844 14.4681067,24.9405491 19.9383654,24.9405491 C28.1437534,24.9405491 35.7342624,12 46.546272,12 C57.3582816,12 70.206456,22.9438374 82.0204315,24.0166827 C93.8344071,25.0895281 100.045901,21.2261595 109.768034,21.1002922 C119.490167,20.9744249 122.94844,26.7149935 134.557988,27.2324864 C146.167536,27.7499792 155.03979,22.5724676 159.867814,22.0948145 C164.695838,21.6171614 177.028219,24.8855042 186.517635,24.8855042 C189.902967,24.8855042 194.487051,24.1269774 199.303301,23.7133506 C202.092655,23.4737968 206.65554,23.1422895 212.991959,22.7188287" id="Line-Copy-4" stroke="url(#linearGradient-10)" transform="translate(107.094025, 19.634398) rotate(6.000000) translate(-107.094025, -19.634398) "></path>
            </g>
        </g>
    </g>
</svg>