<?xml version="1.0" encoding="UTF-8"?>
<svg width="600px" height="200px" viewBox="0 0 600 200" version="1.1" xmlns="http://www.w3.org/2000/svg" xmlns:xlink="http://www.w3.org/1999/xlink">
    <!-- Generator: Sketch 55.2 (78181) - https://sketchapp.com -->
    <title>fauda</title>
    <desc>Created with Sketch.</desc>
    <defs>
        <linearGradient x1="0%" y1="50%" x2="100%" y2="50%" id="linearGradient-1">
            <stop stop-color="#329AE7" offset="0%"></stop>
            <stop stop-color="#5835D8" offset="52.6288007%"></stop>
            <stop stop-color="#DB306A" offset="100%"></stop>
        </linearGradient>
        <linearGradient x1="0%" y1="50%" x2="100%" y2="50%" id="linearGradient-2">
            <stop stop-color="#329AE7" offset="0%"></stop>
            <stop stop-color="#5835D8" offset="52.6288007%"></stop>
            <stop stop-color="#DB306A" offset="100%"></stop>
        </linearGradient>
        <linearGradient x1="0%" y1="50%" x2="84.5280828%" y2="50%" id="linearGradient-3">
            <stop stop-color="#32CD61" offset="0%"></stop>
            <stop stop-color="#329AE7" offset="100%"></stop>
        </linearGradient>
        <linearGradient x1="0%" y1="50%" x2="84.5280828%" y2="50%" id="linearGradient-4">
            <stop stop-color="#D5DF40" offset="0%"></stop>
            <stop stop-color="#329AE7" offset="100%"></stop>
        </linearGradient>
        <linearGradient x1="0%" y1="50%" x2="84.5280828%" y2="50%" id="linearGradient-5">
            <stop stop-color="#ECBE4D" offset="0%"></stop>
            <stop stop-color="#329AE7" offset="100%"></stop>
        </linearGradient>
        <linearGradient x1="0%" y1="50%" x2="84.5280828%" y2="50%" id="linearGradient-6">
            <stop stop-color="#E22F2B" offset="0%"></stop>
            <stop stop-color="#329AE7" offset="100%"></stop>
        </linearGradient>
    </defs>
    <g id="fauda" stroke="none" stroke-width="1" fill="none" fill-rule="evenodd">
        <text fill="url(#linearGradient-1)" font-family="RalewayRoman-Black, Raleway" font-size="72" font-weight="700">
            <tspan x="298.492" y="122">fauda</tspan>
        </text>
        <path d="M306.5,126.5 L504.303893,126.5" id="Line" stroke="url(#linearGradient-2)" stroke-width="5" stroke-linecap="square"></path>
        <path d="M94.4014598,129.461674 C99.9801575,131.432276 105.504636,132.417577 110.974894,132.417577 C119.180282,132.417577 127.196628,124.4 138.008638,124.4 C148.820647,124.4 161.449424,130.271887 173.263399,131.344732 C185.077375,132.417577 191.403739,128.631638 201.125871,128.50577 C210.848004,128.379903 213.565211,131.382592 225.174759,131.900085 C236.784307,132.417577 246.293099,128.983423 251.121123,128.50577 C255.949147,128.028117 268.386056,129.290982 277.875473,129.290982 C281.260804,129.290982 285.74036,128.537934 290.55661,128.124307 C293.345963,127.884753 297.943692,127.884753 304.349796,128.124307" id="Line-Copy" stroke="url(#linearGradient-3)" stroke-width="1.5" stroke-linecap="square"></path>
        <path d="M95.3491424,124.460761 C100.92784,126.431363 106.452318,127.416664 111.922577,127.416664 C120.127965,127.416664 128.249009,116.397259 139.061019,116.397259 C149.873029,116.397259 162.483742,123.236898 174.297717,124.309744 C186.111693,125.382589 192.386321,122.630115 202.108453,122.504248 C211.830586,122.378381 214.512893,126.381679 226.122441,126.899172 C237.731989,127.416664 247.275681,122.981901 252.103705,122.504248 C256.931729,122.026595 269.333739,125.290069 278.823155,125.290069 C282.208487,125.290069 286.688043,123.537021 291.504293,123.123394 C294.293646,122.88384 298.891375,122.88384 305.297479,123.123394" id="Line-Copy-2" stroke="url(#linearGradient-4)" stroke-width="1.5" stroke-linecap="square" transform="translate(200.323311, 121.906962) rotate(2.000000) translate(-200.323311, -121.906962) "></path>
        <path d="M95.3317882,118.461677 C100.95699,121.097322 106.504721,122.415145 111.974979,122.415145 C120.180367,122.415145 128.196713,108.397567 139.008723,108.397567 C149.820732,108.397567 160.586898,117.509072 172.400874,118.581918 C184.214849,119.654763 192.403824,116.629205 202.125956,116.503337 C211.848089,116.37747 214.565296,121.380159 226.174844,121.897652 C237.784392,122.415145 247.692951,117.749256 252.520975,117.271603 C257.348998,116.79395 269.386141,120.28855 278.875558,120.28855 C282.260889,120.28855 286.740445,118.535501 291.556695,118.121874 C294.346048,117.88232 298.943777,117.88232 305.349881,118.121874" id="Line-Copy-3" stroke="url(#linearGradient-5)" stroke-width="1.5" stroke-linecap="square" transform="translate(200.340835, 115.406356) rotate(4.000000) translate(-200.340835, -115.406356) "></path>
        <path d="M94.5975511,110.067088 C101.622142,113.879617 107.869566,115.785882 113.339825,115.785882 C121.545213,115.785882 129.135722,102.845333 139.947732,102.845333 C150.759741,102.845333 163.607916,113.78917 175.421891,114.862016 C187.235867,115.934861 193.447361,112.071492 203.169494,111.945625 C212.891626,111.819758 216.3499,117.560326 227.959448,118.077819 C239.568996,118.595312 248.44125,113.4178 253.269274,112.940147 C258.097298,112.462494 270.429679,115.730837 279.919095,115.730837 C283.304427,115.730837 287.888511,114.97231 292.704761,114.558683 C295.494114,114.31913 300.057,113.987622 306.393418,113.564162" id="Line-Copy-4" stroke="url(#linearGradient-6)" stroke-width="1.5" stroke-linecap="square" transform="translate(200.495485, 110.479730) rotate(6.000000) translate(-200.495485, -110.479730) "></path>
    </g>
</svg>